<svg xmlns="http://www.w3.org/2000/svg" viewBox="0 0 152 249"><defs><style>.cls-1{fill:#e41334;stroke:#e41334;}.cls-1,.cls-2{stroke-miterlimit:10;stroke-width:2px;}.cls-2{fill:#fff;stroke:#fff;}</style></defs><g id="Calque_2" data-name="Calque 2"><g id="Calque_1-2" data-name="Calque 1"><path class="cls-1" d="M146.2,248,74.5,180.5,5.8,248A4.8,4.8,0,0,1,1,243.2V5.8A4.8,4.8,0,0,1,5.8,1H146.2A4.8,4.8,0,0,1,151,5.8V243.2A4.8,4.8,0,0,1,146.2,248Z"/><path class="cls-2" d="M76,35a47.18,47.18,0,0,0-5,.27,45.4,45.4,0,0,0-4.55.73l-.87.19a47.06,47.06,0,0,0-23.21,13c-.58.6-1.16,1.22-1.72,1.86a47.07,47.07,0,0,0,69.07,63.91c.59-.6,1.17-1.22,1.73-1.86A47.05,47.05,0,0,0,76,35ZM44.37,51.53c.24-.26.5-.51.75-.76l.88-.85.81-.72c.3-.27.6-.54.91-.79s.55-.46.83-.68.63-.5,1-.74.57-.43.86-.63.65-.47,1-.69l.89-.59,1-.62c.3-.19.61-.37.92-.54l1.05-.58.94-.49,1.08-.53,1-.44,1.11-.47,1-.39,1.15-.41,1-.34,1.18-.35,1-.29.38-.09A39,39,0,0,0,55,55.82a52.59,52.59,0,0,1-10.76-4.14C44.28,51.63,44.32,51.57,44.37,51.53Zm-2.26,2.52A54.91,54.91,0,0,0,54,58.79a81.34,81.34,0,0,0-3.17,21.7H32A43.83,43.83,0,0,1,42.11,54.05Zm0,56A43.83,43.83,0,0,1,32,83.63H50.85A81.34,81.34,0,0,0,54,105.33,53.92,53.92,0,0,0,42.11,110.07Zm22.51,14.42c-.32-.08-.64-.18-1-.28s-.8-.23-1.19-.36-.66-.22-1-.33-.78-.27-1.16-.42l-1-.38-1.12-.48-1-.43-1.1-.53-.94-.49-1.06-.58c-.31-.18-.61-.35-.91-.54s-.68-.42-1-.63l-.89-.59c-.34-.22-.67-.46-1-.69s-.57-.41-.85-.63-.65-.5-1-.75-.56-.44-.83-.67l-.92-.8-.8-.71c-.3-.28-.59-.57-.88-.86s-.51-.49-.76-.75l-.13-.15A53.05,53.05,0,0,1,55,108.31a39,39,0,0,0,10,16.28Zm9.76,1.37c-6.72-1-12.61-8-16.31-18.31a79.86,79.86,0,0,1,16.31-1.92v20.23Zm0-23.36a81.89,81.89,0,0,0-17.3,2.06A78.51,78.51,0,0,1,54,83.63H74.38V102.5Zm0-22H54a78.45,78.45,0,0,1,3.09-20.93,83.21,83.21,0,0,0,17.3,2.06Zm0-22a79.85,79.85,0,0,1-16.31-1.91c3.7-10.35,9.59-17.36,16.31-18.31V58.48Zm35.4-4.43a43.83,43.83,0,0,1,10.08,26.44H101a81.34,81.34,0,0,0-3.17-21.7A54.91,54.91,0,0,0,109.78,54.05ZM87.26,39.62l1,.28,1.19.36,1,.34c.39.13.78.27,1.16.42l1,.38,1.12.47,1,.44,1.1.53.94.48,1.06.59c.31.17.61.35.91.53l1,.64.89.58,1,.7.86.62,1,.75.82.67c.32.26.62.53.92.8s.54.47.8.72.59.57.88.85l.76.75.13.15a52.28,52.28,0,0,1-10.75,4.14,38.91,38.91,0,0,0-10-16.28Zm-9.74-1.36c6.71,1,12.6,8,16.3,18.31a79.84,79.84,0,0,1-16.3,1.91V38.26Zm0,23.36a83.2,83.2,0,0,0,17.29-2.06A78.45,78.45,0,0,1,97.9,80.49H77.52Zm0,22H97.9a78.51,78.51,0,0,1-3.09,20.93h0a81.87,81.87,0,0,0-17.29-2.06Zm0,42.23V105.63a79.85,79.85,0,0,1,16.3,1.92C90.12,117.9,84.23,124.9,77.52,125.86Zm30-13.27c-.25.26-.51.5-.76.75l-.88.86-.8.71-.92.8-.83.68-1,.74-.87.63c-.33.23-.65.47-1,.68l-.9.59-1,.63-.92.54-1,.58-.94.49-1.08.52-1,.44-1.11.47c-.33.13-.65.27-1,.39s-.76.28-1.15.42l-1,.33-1.19.36-1,.28-.38.1a39,39,0,0,0,10-16.28,53.14,53.14,0,0,1,10.76,4.13Zm2.25-2.52a53.92,53.92,0,0,0-11.91-4.74A81.34,81.34,0,0,0,101,83.63h18.82A43.83,43.83,0,0,1,109.78,110.07Z"/></g></g></svg>