<svg xmlns="http://www.w3.org/2000/svg" viewBox="0 0 291.61 62.01"><defs><style>.cls-1{fill:#e41334;}</style></defs><g id="Calque_2" data-name="Calque 2"><g id="Calque_1-2" data-name="Calque 1"><path id="Tracé_24" data-name="Tracé 24" class="cls-1" d="M288.87,0H237.11a2.75,2.75,0,0,0-2.74,2.74V14.81a2.74,2.74,0,0,0,2.74,2.73h12.78a2.76,2.76,0,0,1,2.74,2.74V42.39c0,8.76,4.73,19.62,17.3,19.62h.69a2.74,2.74,0,0,0,2.74-2.73h0v-39a2.74,2.74,0,0,1,2.73-2.74h12.78a2.74,2.74,0,0,0,2.74-2.74h0V2.74A2.74,2.74,0,0,0,288.87,0Z"/><path d="M13.65,52.56c0,.15-.16.31-.55.49a14.31,14.31,0,0,1-2.71.81,14.41,14.41,0,0,1-2.9.29,9.48,9.48,0,0,1-3.71-.61,5.36,5.36,0,0,1-2.25-1.73A6.88,6.88,0,0,1,.39,49.14a17.16,17.16,0,0,1-.32-3.52c0-.91,0-1.84,0-2.77S0,41,0,40.15V8.22a1,1,0,0,1,.85-1l4.88-1c.44-.09.71-.07.82.06a1.45,1.45,0,0,1,.16.85v38.5a3.38,3.38,0,0,0,.55,2.19,2.14,2.14,0,0,0,1.67.62,5.41,5.41,0,0,0,2.34-.53q.86-.45,1.11.27l1.11,3.77C13.57,52.18,13.63,52.41,13.65,52.56Z"/><path class="cls-1" d="M19.74,22.56c-.22.43-.41.66-.59.68a2.68,2.68,0,0,1-.91-.16l-2.08-.66c-.39-.13-.61-.27-.65-.42a2.1,2.1,0,0,1,.13-.94L19.55,7.9A1.12,1.12,0,0,1,20.72,7h5.86c.61,0,1,.11,1,.33s0,.56-.26,1Z"/><path d="M40.46,53.14c-.09.11-.33.17-.72.17H35c-.48,0-.75-.06-.82-.17a2.05,2.05,0,0,1-.1-.81V26.59h-5a1.54,1.54,0,0,1-.82-.13c-.11-.08-.16-.36-.16-.84V22.49c0-.48.05-.76.16-.85a1.65,1.65,0,0,1,.82-.13H39.68a1.13,1.13,0,0,1,.75.17,1.33,1.33,0,0,1,.16.81V52.4A1.38,1.38,0,0,1,40.46,53.14ZM41.63,11A4.56,4.56,0,0,1,37,15.65a4.51,4.51,0,0,1-3.26-1.34A4.41,4.41,0,0,1,32.38,11a4.44,4.44,0,0,1,1.37-3.25,4.55,4.55,0,0,1,6.51,0A4.4,4.4,0,0,1,41.63,11Z"/><path d="M75.57,53.14a1.29,1.29,0,0,1-.79.17H70c-.44,0-.69-.06-.76-.17a1.76,1.76,0,0,1-.1-.74V31.48a7.1,7.1,0,0,0-1-4.2A3.64,3.64,0,0,0,65.07,26a7.76,7.76,0,0,0-3.42.75,16,16,0,0,0-3.6,2.64v23a1.08,1.08,0,0,1-.17.74,1.13,1.13,0,0,1-.75.17H52.32a1.13,1.13,0,0,1-.75-.17,1.08,1.08,0,0,1-.17-.74V30.18a19.55,19.55,0,0,0-.26-3.52,11.7,11.7,0,0,0-1-2.93,3,3,0,0,1-.23-.69c0-.15.14-.31.49-.48l4.4-2c.35-.17.61-.14.78.1a8.74,8.74,0,0,1,.6.94c.22.44.41.87.59,1.31s.42,1.1.72,2c.78-.61,1.54-1.19,2.27-1.73A17,17,0,0,1,62,21.84a11,11,0,0,1,2.37-.91,10.79,10.79,0,0,1,2.79-.33q4.55,0,6.56,2.25t2,7.72V52.4C75.77,52.79,75.7,53,75.57,53.14Z"/><path d="M104.57,44.38a9.33,9.33,0,0,1-2.93,7.2,11.1,11.1,0,0,1-7.82,2.7,22.51,22.51,0,0,1-5.57-.71,18.72,18.72,0,0,1-5.12-2.09c-.39-.21-.59-.38-.62-.49a2.3,2.3,0,0,1,.23-.81l1.37-3.39c.13-.34.31-.49.55-.42a2.6,2.6,0,0,1,.69.29,27.56,27.56,0,0,0,4.4,1.73,13.82,13.82,0,0,0,3.81.62,4.68,4.68,0,0,0,3.29-1.11,3.89,3.89,0,0,0,1.2-3,2.74,2.74,0,0,0-1-2.28,25.46,25.46,0,0,0-3.59-2.15c-.39-.17-.86-.4-1.4-.68l-1.69-.88c-.59-.3-1.17-.61-1.73-.91s-1-.59-1.43-.85A7,7,0,0,1,84.37,34a9.19,9.19,0,0,1-.78-3.65,9.48,9.48,0,0,1,.81-3.94,9.69,9.69,0,0,1,5.67-5.18,12.65,12.65,0,0,1,4.33-.72,18.83,18.83,0,0,1,4.47.59,15.36,15.36,0,0,1,4.07,1.57,1,1,0,0,1,.39,1.49L102,27.05c-.17.35-.37.52-.58.52a1.92,1.92,0,0,1-.72-.19,15.28,15.28,0,0,0-6.13-1.63,5,5,0,0,0-3.38,1A3.51,3.51,0,0,0,90,29.59a3,3,0,0,0,.88,2.32,15.83,15.83,0,0,0,3.1,2c.39.22.9.49,1.53.82l1.89,1c.63.33,1.23.64,1.79,1l1.24.65a8,8,0,0,1,3.32,3.13A8.83,8.83,0,0,1,104.57,44.38Z"/><path d="M129.62,51.91c0,.15-.25.33-.69.55a17.05,17.05,0,0,1-3.87,1.27,19.65,19.65,0,0,1-3.94.42,11,11,0,0,1-4.23-.71,5.93,5.93,0,0,1-2.6-2,8.09,8.09,0,0,1-1.28-3.1,20.36,20.36,0,0,1-.36-4V26.59h-4.5a1.29,1.29,0,0,1-.85-.19,1.13,1.13,0,0,1-.19-.78V22.49a1.13,1.13,0,0,1,.19-.78,1.28,1.28,0,0,1,.85-.2h4.5V13a1,1,0,0,1,.16-.69,1.76,1.76,0,0,1,.69-.29l4.48-.85a3.49,3.49,0,0,1,1-.09c.22,0,.33.31.33.88v9.57h8.6q.72,0,.78.33a2,2,0,0,1-.06.85l-.72,3.06a1.57,1.57,0,0,1-.29.68,1,1,0,0,1-.69.16h-7.62V43.66a7.85,7.85,0,0,0,.62,3.82c.41.63,1.27.94,2.57.94A7.57,7.57,0,0,0,125,48c.74-.26,1.55-.56,2.42-.91.47-.22.77-.25.88-.1a2.59,2.59,0,0,1,.29.75l.91,3.32A2.68,2.68,0,0,1,129.62,51.91Z"/><path d="M158.38,50.9a2.5,2.5,0,0,1,.17.65.4.4,0,0,1-.3.45l-4,2q-.72.33-1.08.06a2.41,2.41,0,0,1-.68-.91,12.14,12.14,0,0,1-1.11-2.93,14.11,14.11,0,0,1-4.14,3,11.45,11.45,0,0,1-4.65.91,9.06,9.06,0,0,1-6.75-2.54,9.34,9.34,0,0,1-2.51-6.84,9.88,9.88,0,0,1,1.6-5.87A10.45,10.45,0,0,1,139,35.46a18,18,0,0,1,5.51-1.57,46.1,46.1,0,0,1,5.89-.39V31.42c0-2-.37-3.4-1.1-4.21s-2.09-1.2-4-1.2a14,14,0,0,0-3.46.45,30.1,30.1,0,0,0-4,1.44,1.8,1.8,0,0,1-.71.13c-.22,0-.37-.15-.46-.46l-1-3.19c-.22-.65-.15-1.1.19-1.34a6.7,6.7,0,0,1,1-.55,24.15,24.15,0,0,1,9.32-1.89c3.6,0,6.3.77,8.08,2.31s2.67,4.05,2.67,7.53V43.21a23.54,23.54,0,0,0,.33,4.4A10.94,10.94,0,0,0,158.38,50.9Zm-7.95-12.64c-1,0-2.17.05-3.38.16a13.93,13.93,0,0,0-3.46.75,6.71,6.71,0,0,0-2.7,1.76,4.72,4.72,0,0,0-1.08,3.32,5,5,0,0,0,1.27,3.49,4.11,4.11,0,0,0,3.16,1.4c2,0,4.07-1,6.19-3.13Z"/><path d="M191.54,53.14a1.29,1.29,0,0,1-.79.17H186c-.44,0-.69-.06-.76-.17a1.76,1.76,0,0,1-.1-.74V31.48a7.1,7.1,0,0,0-1-4.2A3.64,3.64,0,0,0,181,26a7.73,7.73,0,0,0-3.42.75A16,16,0,0,0,174,29.4v23a1.08,1.08,0,0,1-.17.74,1.13,1.13,0,0,1-.75.17h-4.81a1.13,1.13,0,0,1-.75-.17,1.08,1.08,0,0,1-.17-.74V30.18a19.55,19.55,0,0,0-.26-3.52,11.7,11.7,0,0,0-1-2.93,2.58,2.58,0,0,1-.23-.69c0-.15.14-.31.49-.48l4.39-2c.36-.17.62-.14.79.1a8.74,8.74,0,0,1,.6.94c.22.44.41.87.59,1.31s.42,1.1.72,2c.78-.61,1.54-1.19,2.27-1.73a17,17,0,0,1,2.25-1.4,11,11,0,0,1,2.37-.91,10.79,10.79,0,0,1,2.79-.33q4.54,0,6.56,2.25t2,7.72V52.4C191.74,52.79,191.67,53,191.54,53.14Z"/><path d="M219.14,51.91c0,.15-.25.33-.69.55a17.22,17.22,0,0,1-3.87,1.27,19.75,19.75,0,0,1-4,.42,11,11,0,0,1-4.22-.71,5.93,5.93,0,0,1-2.6-2,7.94,7.94,0,0,1-1.28-3.1,19.59,19.59,0,0,1-.37-4V26.59h-4.49a1.27,1.27,0,0,1-.85-.19,1.13,1.13,0,0,1-.19-.78V22.49a1.13,1.13,0,0,1,.19-.78,1.26,1.26,0,0,1,.85-.2h4.49V13a1,1,0,0,1,.17-.69A1.76,1.76,0,0,1,203,12l4.47-.85a3.58,3.58,0,0,1,1-.09c.22,0,.33.31.33.88v9.57h8.6q.72,0,.78.33a2,2,0,0,1-.06.85l-.72,3.06a1.7,1.7,0,0,1-.29.68,1,1,0,0,1-.69.16h-7.62V43.66a7.85,7.85,0,0,0,.62,3.82c.41.63,1.27.94,2.57.94a7.61,7.61,0,0,0,2.54-.39c.74-.26,1.54-.56,2.41-.91.48-.22.77-.25.88-.1a2.3,2.3,0,0,1,.3.75l.91,3.32A2.68,2.68,0,0,1,219.14,51.91Z"/></g></g></svg>