<svg xmlns="http://www.w3.org/2000/svg" width="32.913" height="32.913" viewBox="0 0 32.913 32.913">
  <path id="untitled1824" d="M18.594,32c-5.257,0-9.867-7.539-9.867-16.133C8.727,7.415,13.337,0,18.594,0a.533.533,0,0,1,0,1.066c-4.688,0-8.8,6.915-8.8,14.8s4.194,15.067,8.8,15.067a.533.533,0,0,1,0,1.066Zm0-9.6c-2.769,0-5.867-2.794-5.867-6.533A6.232,6.232,0,0,1,18.594,9.6a.533.533,0,0,1,0,1.066,5.14,5.14,0,0,0-4.8,5.2c0,3.079,2.58,5.467,4.8,5.467a.533.533,0,0,1,0,1.066Zm2,9.6h-2.12a.534.534,0,0,1-.533-.533v-9.6a.534.534,0,0,1,.533-.533h2.12a2.644,2.644,0,0,1,2.679,2.533V29.2A2.888,2.888,0,0,1,20.594,32Zm-1.588-1.067h1.587A1.843,1.843,0,0,0,22.206,29.2V23.867A1.606,1.606,0,0,0,20.593,22.4H19.006v8.533Zm1.588-20.266h-2.12a.533.533,0,0,1-.533-.533V.534A.533.533,0,0,1,18.474,0h2.12a2.645,2.645,0,0,1,2.679,2.533V7.867a2.888,2.888,0,0,1-2.679,2.8ZM19.006,9.6h1.587a1.843,1.843,0,0,0,1.613-1.733V2.534a1.606,1.606,0,0,0-1.613-1.467H19.006Z" transform="translate(-6.171 16.457) rotate(-45)" fill="#fff"/>
</svg>
